Results
version=1
nRows=14
nColumns=24
inDegrees=yes
endheader
time	pelvis_tilt	pelvis_list	pelvis_rotation	pelvis_tx	pelvis_ty	pelvis_tz	hip_flexion_r	hip_adduction_r	hip_rotation_r	knee_angle_r	ankle_angle_r	subtalar_angle_r	mtp_angle_r	hip_flexion_l	hip_adduction_l	hip_rotation_l	knee_angle_l	ankle_angle_l	subtalar_angle_l	mtp_angle_l	lumbar_extension	lumbar_bending	lumbar_rotation
      0.84183333	      0.42135688	      5.20661635	     -2.78905852	     -0.47962349	      1.02458354	      0.32091441	      9.82355974	     -1.91989010	     -2.58700158	    -17.14100949	      3.35573041	     -5.44896233	     13.22385706	     12.84212409	      3.08604673	     -7.47254965	    -62.57409661	     -2.42678196	    -19.25574358	      1.89193919	     -5.25133429	     -6.01780136	      4.17815890
      0.84600000	      0.41309101	      5.30129331	     -2.99228160	     -0.47453975	      1.02524386	      0.32152528	      9.39181046	     -2.00706700	     -2.53604152	    -16.83334888	      3.45565186	     -5.21727304	     13.25344826	     13.33826091	      3.16096714	     -7.67770964	    -62.15111742	     -2.19537023	    -18.68878332	      1.96167845	     -5.23643903	     -6.12989611	      4.53049718
      0.85016667	      0.39801599	      5.38117184	     -3.19619816	     -0.46946754	      1.02584936	      0.32212443	      8.96664444	     -2.07998810	     -2.48417828	    -16.52192069	      3.54827753	     -4.99229119	     13.28454863	     13.83296419	      3.21605304	     -7.87967646	    -61.68873433	     -1.96332359	    -18.07654739	      2.05334750	     -5.21383470	     -6.22664520	      4.88247081
      0.85433333	      0.37256121	      5.46553113	     -3.40473891	     -0.46439505	      1.02639728	      0.32271688	      8.55700400	     -2.15930172	     -2.43407814	    -16.21625163	      3.64710047	     -4.77177223	     13.31667800	     14.32561332	      3.27489590	     -8.08255352	    -61.17769174	     -1.73826616	    -17.43899506	      2.16552390	     -5.17717044	     -6.32905507	      5.23376997
      0.85850000	      0.37312481	      5.55417529	     -3.61674029	     -0.45932242	      1.02695501	      0.32330135	      8.12340657	     -2.24852760	     -2.39148630	    -15.91654464	      3.72147901	     -4.55972690	     13.34261133	     14.77185114	      3.33520095	     -8.29547664	    -60.60328969	     -1.54744488	    -16.79876744	      2.26851587	     -5.15507353	     -6.42885167	      5.53117330
      0.86266667	      0.36104073	      5.61258034	     -3.81354133	     -0.45429830	      1.02740524	      0.32385928	      7.69424772	     -2.30449118	     -2.33793875	    -15.59946808	      3.84829224	     -4.33406512	     13.37738572	     15.23659640	      3.36433831	     -8.47955772	    -60.02955915	     -1.29714444	    -16.11387244	      2.42177477	     -5.15385432	     -6.50565445	      5.92194876
      0.86683333	      0.36428672	      5.69660366	     -4.03154905	     -0.44925684	      1.02786833	      0.32442574	      7.26493705	     -2.39344579	     -2.28760601	    -15.30601659	      3.90050398	     -4.13737603	     13.40045441	     15.65669974	      3.41859498	     -8.68950800	    -59.36746370	     -1.14476017	    -15.45853407	      2.53631176	     -5.14404310	     -6.60011841	      6.18522694
      0.87100000	      0.37088291	      5.72478997	     -4.21596268	     -0.44423523	      1.02825474	      0.32495279	      6.80618561	     -2.42181238	     -2.24338249	    -14.97731085	      4.03942375	     -3.93102536	     13.43763812	     16.07577520	      3.41426757	     -8.85832013	    -58.71904045	     -0.88320086	    -14.75959159	      2.73685902	     -5.16174443	     -6.63923680	      6.59839864
      0.87516667	      0.34778426	      5.77131466	     -4.41517172	     -0.43922367	      1.02856327	      0.32548634	      6.39640637	     -2.46967145	     -2.18649036	    -14.67140263	      4.13208645	     -3.75076176	     13.47207168	     16.50956009	      3.42375740	     -9.04488038	    -58.00956043	     -0.68811657	    -14.08380961	      2.94372026	     -5.13458071	     -6.69599590	      6.92803277
      0.87933333	      0.32336784	      5.81313838	     -4.60618570	     -0.43420386	      1.02882489	      0.32598509	      5.98748412	     -2.51574592	     -2.13187649	    -14.36894375	      4.22553661	     -3.57433082	     13.51004776	     16.92987172	      3.43351381	     -9.21848408	    -57.25823828	     -0.50657167	    -13.42819499	      3.19218080	     -5.10661073	     -6.73695236	      7.26761424
      0.88350000	      0.31358076	      5.86476668	     -4.80821986	     -0.42921535	      1.02905969	      0.32648896	      5.57920709	     -2.57688556	     -2.08774668	    -14.08956046	      4.28298157	     -3.41400252	     13.53253924	     17.31849748	      3.45187328	     -9.40468809	    -56.45257312	     -0.37410012	    -12.80158183	      3.34801254	     -5.09402457	     -6.79691978	      7.49547731
      0.88766667	      0.28919905	      5.87277156	     -4.97818533	     -0.42420271	      1.02921264	      0.32695955	      5.15626996	     -2.58766138	     -2.03461209	    -13.76983898	      4.41825478	     -3.24865860	     13.56742848	     17.71705563	      3.42615021	     -9.55072239	    -55.64964086	     -0.16258411	    -12.16198905	      3.60540370	     -5.07461776	     -6.80671149	      7.87255586
      0.89183333	      0.24537282	      5.89302788	     -5.16276016	     -0.41922050	      1.02930525	      0.32743584	      4.77390108	     -2.61165661	     -1.96954204	    -13.47450980	      4.47573434	     -3.12908167	     14.04014517	     18.11692173	      3.40778816	     -9.71562220	    -54.77736973	     -0.10862030	    -11.64953273	      7.82674110	     -5.02683701	     -6.82745828	      8.18427106
      0.89600000	      0.25562683	      5.91443475	     -5.32837838	     -0.41423217	      1.02944386	      0.32785958	      4.32971529	     -2.64932623	     -1.94653791	    -13.18175916	      4.54877759	     -2.98260147	     14.04186753	     18.44024881	      3.41090683	     -9.84728337	    -53.86222582	      0.00460556	    -11.07935530	      7.84517012	     -5.05008904	     -6.85468951	      8.36782360
